<svg width="58" height="58" xmlns="http://www.w3.org/2000/svg" xmlns:svg="http://www.w3.org/2000/svg" xmlns:xlink="http://www.w3.org/1999/xlink">
 <g>
  <title>Layer 1</title>
  <g id="svg_1">
   <g id="svg_2">
    <polygon points="46.5,4 46.5,8 39.5,8 39.5,4 15.5,4 15.5,8 8.5,8 8.5,4 0.5,4 0.5,15 54.5,15 54.5,4   " fill="#F05565" id="svg_3"/>
    <polygon points="8.5,15 0.5,15 0.5,58 54.5,58 54.5,15 46.5,15 39.5,15 15.5,15   " fill="#EFEBDE" id="svg_4"/>
    <path d="m37.5,22l-2,0l-7,0l-2,0l-7,0l-2,0l-9,0l0,9l0,2l0,7l0,2l0,9l9,0l2,0l7,0l2,0l7,0l2,0l9,0l0,-9l0,-2l0,-7l0,-2l0,-9l-9,0zm-9,2l7,0l0,7l-7,0l0,-7zm7,16l-7,0l0,-7l7,0l0,7zm-16,-7l7,0l0,7l-7,0l0,-7zm0,-9l7,0l0,7l-7,0l0,-7zm-9,0l7,0l0,7l-7,0l0,-7zm0,9l7,0l0,7l-7,0l0,-7zm7,16l-7,0l0,-7l7,0l0,7zm9,0l-7,0l0,-7l7,0l0,7zm9,0l-7,0l0,-7l7,0l0,7zm9,0l-7,0l0,-7l7,0l0,7zm0,-9l-7,0l0,-7l7,0l0,7zm-7,-9l0,-7l7,0l0,7l-7,0z" fill="#D5D0BB" id="svg_5"/>
    <rect x="8.5" width="7" height="8" fill="#36495E" id="svg_6"/>
    <rect x="39.5" width="7" height="8" fill="#36495E" id="svg_7"/>
    <rect x="19.5" y="33" width="7" height="7" fill="#7F6E5D" id="svg_8"/>
   </g>
   <g stroke="null" id="svg_9">
    <rect stroke="null" x="31.562499" y="32.062499" width="26.500001" height="26.500001" fill="#f2f2f2" id="svg_10"/>
   </g>
  </g>
  <g id="svg_13"/>
  <g id="svg_14"/>
  <g id="svg_15"/>
  <g id="svg_16"/>
  <g id="svg_17"/>
  <g id="svg_18"/>
  <g id="svg_19"/>
  <g id="svg_20"/>
  <g id="svg_21"/>
  <g id="svg_22"/>
  <g id="svg_23"/>
  <g id="svg_24"/>
  <g id="svg_25"/>
  <g id="svg_26"/>
  <g id="svg_27"/>
  <g id="svg_31"/>
  <use id="svg_30" xlink:href="#svg_29" transform="matrix(0.38326650838234655,0,0,0.38326650838234655,-88.51421433406604,-90.74253515488047) " y="327.094781" x="318.78521"/>
 </g>
 <defs>
  <symbol id="svg_29" viewBox="0 0 512 512" xmlns="http://www.w3.org/2000/svg" xmlns:xlink="http://www.w3.org/1999/xlink">
   <path id="svg_11" d="m295.724,494.345l-44.138,0c-4.875,0 -8.828,-3.953 -8.828,-8.828l0,-203.034c0,-4.875 3.953,-8.828 8.828,-8.828l44.138,0c4.875,0 8.828,3.953 8.828,8.828l0,203.034c0,4.875 -3.953,8.828 -8.828,8.828z" fill="#FFD782"/>
   <path id="svg_12" d="m295.724,494.345l-44.138,0c-4.875,0 -8.828,-3.953 -8.828,-8.828l0,-150.069c0,-4.875 3.953,-8.828 8.828,-8.828l44.138,0c4.875,0 8.828,3.953 8.828,8.828l0,150.069c0,4.875 -3.953,8.828 -8.828,8.828z" fill="#FFC36E"/>
   <path id="svg_28" d="m384,494.345l-44.138,0c-4.875,0 -8.828,-3.953 -8.828,-8.828l0,-361.931c0,-4.875 3.953,-8.828 8.828,-8.828l44.138,0c4.875,0 8.828,3.953 8.828,8.828l0,361.931c0,4.875 -3.953,8.828 -8.828,8.828z" fill="#C3E678"/>
   <path id="svg_32" d="m384,494.345l-44.138,0c-4.875,0 -8.828,-3.953 -8.828,-8.828l0,-256c0,-4.875 3.953,-8.828 8.828,-8.828l44.138,0c4.875,0 8.828,3.953 8.828,8.828l0,256c0,4.875 -3.953,8.828 -8.828,8.828z" fill="#A5D76E"/>
   <path id="svg_33" d="m119.172,494.345l-44.138,0c-4.875,0 -8.828,-3.953 -8.828,-8.828l0,-150.069c0,-4.875 3.953,-8.828 8.828,-8.828l44.138,0c4.875,0 8.828,3.953 8.828,8.828l0,150.069c0,4.875 -3.953,8.828 -8.828,8.828z" fill="#00D2FF"/>
   <path id="svg_34" d="m472.276,494.345l-44.138,0c-4.875,0 -8.828,-3.953 -8.828,-8.828l0,-414.896c0,-4.875 3.953,-8.828 8.828,-8.828l44.138,0c4.875,0 8.828,3.953 8.828,8.828l0,414.897c-0.001,4.874 -3.953,8.827 -8.828,8.827z" fill="#9BE6D2"/>
   <path id="svg_35" d="m472.276,494.345l-44.138,0c-4.875,0 -8.828,-3.953 -8.828,-8.828l0,-308.965c0,-4.875 3.953,-8.828 8.828,-8.828l44.138,0c4.875,0 8.828,3.953 8.828,8.828l0,308.966c-0.001,4.874 -3.953,8.827 -8.828,8.827z" fill="#78D2BE"/>
   <path id="svg_36" d="m207.448,494.345l-44.138,0c-4.875,0 -8.828,-3.953 -8.828,-8.828l0,-256c0,-4.875 3.953,-8.828 8.828,-8.828l44.138,0c4.875,0 8.828,3.953 8.828,8.828l0,256c0,4.875 -3.953,8.828 -8.828,8.828z" fill="#FF6464"/>
   <path id="svg_37" d="m207.448,494.345l-44.138,0c-4.875,0 -8.828,-3.953 -8.828,-8.828l0,-203.034c0,-4.875 3.953,-8.828 8.828,-8.828l44.138,0c4.875,0 8.828,3.953 8.828,8.828l0,203.034c0,4.875 -3.953,8.828 -8.828,8.828z" fill="#D2555A"/>
   <path id="svg_38" d="m119.172,494.345l-44.138,0c-4.875,0 -8.828,-3.953 -8.828,-8.828l0,-97.103c0,-4.875 3.953,-8.828 8.828,-8.828l44.138,0c4.875,0 8.828,3.953 8.828,8.828l0,97.103c0,4.875 -3.953,8.828 -8.828,8.828z" fill="#18BDF6"/>
   <g id="svg_39">
    <path id="svg_40" d="m26.483,450.207l-17.655,0c-4.875,0 -8.828,-3.953 -8.828,-8.828l0,0c0,-4.875 3.953,-8.828 8.828,-8.828l17.655,0l0,17.656z" fill="#D7DEED"/>
    <path id="svg_41" d="m26.483,397.241l-17.655,0c-4.875,0 -8.828,-3.953 -8.828,-8.828l0,0c0,-4.875 3.953,-8.828 8.828,-8.828l17.655,0l0,17.656z" fill="#D7DEED"/>
    <path id="svg_42" d="m26.483,344.276l-17.655,0c-4.875,0 -8.828,-3.953 -8.828,-8.828l0,0c0,-4.875 3.953,-8.828 8.828,-8.828l17.655,0l0,17.656z" fill="#D7DEED"/>
    <path id="svg_43" d="m26.483,291.31l-17.655,0c-4.875,0 -8.828,-3.953 -8.828,-8.828l0,0c0,-4.875 3.953,-8.828 8.828,-8.828l17.655,0l0,17.656z" fill="#D7DEED"/>
    <path id="svg_44" d="m26.483,238.345l-17.655,0c-4.875,0 -8.828,-3.953 -8.828,-8.828l0,0c0,-4.875 3.953,-8.828 8.828,-8.828l17.655,0l0,17.656z" fill="#D7DEED"/>
    <path id="svg_45" d="m26.483,185.379l-17.655,0c-4.875,0 -8.828,-3.953 -8.828,-8.828l0,0c0,-4.875 3.953,-8.828 8.828,-8.828l17.655,0l0,17.656z" fill="#D7DEED"/>
    <path id="svg_46" d="m26.483,132.414l-17.655,0c-4.875,0 -8.828,-3.953 -8.828,-8.828l0,0c0,-4.875 3.953,-8.828 8.828,-8.828l17.655,0l0,17.656z" fill="#D7DEED"/>
    <path id="svg_47" d="m26.483,79.448l-17.655,0c-4.875,0 -8.828,-3.952 -8.828,-8.827l0,0c0,-4.875 3.953,-8.828 8.828,-8.828l17.655,0l0,17.655z" fill="#D7DEED"/>
   </g>
   <path id="svg_48" d="m26.483,494.345l0,0c-4.875,0 -8.828,-3.953 -8.828,-8.828l0,-467.862c0,-4.875 3.953,-8.828 8.828,-8.828l0,0c4.875,0 8.828,3.953 8.828,8.828l0,467.862c-0.001,4.875 -3.953,8.828 -8.828,8.828z" fill="#C7CFE2"/>
   <path id="svg_49" d="m0,494.345l0,0c0,-4.875 3.953,-8.828 8.828,-8.828l494.345,0c4.875,0 8.828,3.953 8.828,8.828l0,0c0,4.875 -3.953,8.828 -8.828,8.828l-494.345,0c-4.875,-0.001 -8.828,-3.953 -8.828,-8.828z" fill="#AFB9D2"/>
   <g id="svg_50"/>
   <g id="svg_51"/>
   <g id="svg_52"/>
   <g id="svg_53"/>
   <g id="svg_54"/>
   <g id="svg_55"/>
   <g id="svg_56"/>
   <g id="svg_57"/>
   <g id="svg_58"/>
   <g id="svg_59"/>
   <g id="svg_60"/>
   <g id="svg_61"/>
   <g id="svg_62"/>
   <g id="svg_63"/>
   <g id="svg_64"/>
  </symbol>
 </defs>
</svg>